<svg class="jss110" width="16" height="16" viewBox="0 0 1024 1024" xmlns="http://www.w3.org/2000/svg" style="display: flex; vertical-align: middle; min-width: auto;"><path d="M500.019 553.226c-0.437 0.339-0.993 0.543-1.597 0.543s-1.16-0.204-1.603-0.547l0.006 0.004c-33.643-19.003-61.991-43.285-84.944-72.061l-0.448-0.581c-14.165-18.487-23.559-41.317-25.968-66.192l-0.042-0.532c-0.147-2.102-0.23-4.555-0.23-7.028 0-26.678 9.736-51.083 25.848-69.854l-0.12 0.143c19.13-22.973 40.043-43.284 62.904-61.226l0.892-0.674c22.036-18.34 44.564-36.209 65.044-56.279 17.297-16.119 31.953-34.769 43.447-55.421l0.585-1.145c8.815-16.759 13.988-36.62 13.988-57.689 0-9.569-1.067-18.889-3.089-27.848l0.16 0.842c-0.389-2.048-2.324-4.884 0.399-5.847 2.427-0.87 3.308 2.478 4.465 4.198 10.669 16.447 17.012 36.559 17.012 58.153 0 6.064-0.5 12.011-1.462 17.802l0.086-0.629c-4.68 39.526-25.231 71.055-51.313 99.625-23.214 25.436-49.879 47.227-75.018 70.656-11.251 10.545-21.717 21.461-31.577 32.913l-0.464 0.551c-15.977 17.932-25.739 41.704-25.739 67.756 0 12.34 2.19 24.168 6.203 35.117l-0.227-0.708c10.503 31.248 27.275 57.971 48.95 79.824l-0.013-0.014q6.81 7.404 13.599 14.817c0.215 0.205 0.154 0.717 0.266 1.331z" fill="rgb(241, 125, 2)"></path><path d="M321.72 785.418c-15.223 3.972-28.463 9.072-40.946 15.445l1.133-0.525c-7.023 3.426-12.997 7.891-17.998 13.274l-0.035 0.038c-8.806 10.301-7.793 18.504 3.482 25.876 11.182 6.821 24.155 12.193 37.955 15.409l0.896 0.176c32.413 8.729 70.695 15.352 109.949 18.535l2.343 0.153c20.793 2.093 44.938 3.287 69.362 3.287 4.315 0 8.622-0.037 12.919-0.111l-0.648 0.009c0.267 0 0.581 0 0.896 0 63.132 0 124.736-6.544 184.17-18.991l-5.816 1.019c21.031-4.274 39.682-10.857 57.037-19.633l-1.28 0.587c10.075-4.467 18.212-11.776 23.586-20.907l0.13-0.239c1.628-3.205 3.42-2.642 5.724-0.717 4.33 3.655 7.061 9.086 7.061 15.155 0 4.661-1.611 8.946-4.307 12.328l0.031-0.040c-5.762 7.322-13.090 13.151-21.501 17.033l-0.361 0.15c-22.499 10.924-48.607 19.349-76.013 23.95l-1.709 0.237c-48.648 9.587-104.91 15.432-162.408 16.143l-0.603 0.006c-6.321 0.13-13.773 0.204-21.243 0.204-59.002 0-116.927-4.613-173.434-13.497l6.261 0.811c-33.235-4.305-63.316-11.99-91.836-22.842l2.748 0.918c-8.921-3.316-16.634-7.728-23.476-13.187l0.169 0.131c-5.647-3.59-9.339-9.813-9.339-16.899 0-6.54 3.146-12.346 8.007-15.986l0.052-0.037c7.265-6.651 15.769-12.099 25.103-15.941l0.568-0.207c25.117-10.868 54.317-19.219 84.787-23.653l1.895-0.226c0.392-0.084 0.841-0.133 1.302-0.133 2.24 0 4.213 1.141 5.369 2.874l0.015 0.024z" fill="rgb(5, 102, 127)"></path><path d="M677.069 253.665c-19.795 10.633-36.716 21.619-52.654 33.824l0.921-0.677c-21.007 15.274-38.435 34.066-51.744 55.667l-0.48 0.838c-7.496 11.827-11.946 26.228-11.946 41.668 0 13.51 3.407 26.224 9.408 37.33l-0.206-0.417c6.492 12.913 13.701 25.405 21.268 37.683 21.709 35.205 18.156 60.989-11.848 94.024-8.422 8.868-17.752 16.731-27.883 23.487l-0.594 0.373c-1.956 1.352-4.035 3.461-6.42 1.024s0.635-3.983 1.71-5.427c18.975-25.426 17.838-51.722 3.072-78.326-6.298-11.366-13.568-22.19-20.337-33.29-9.542-13.695-16.102-30.155-18.375-47.954l-0.057-0.543c-0.147-2.074-0.231-4.495-0.231-6.935 0-25.851 9.408-49.505 24.988-67.725l-0.119 0.143c19.365-23.028 42.786-41.936 69.267-55.793l1.256-0.598c18.163-10.232 39.465-19.866 61.637-27.649l2.875-0.879c1.792-0.666 3.625-2.191 6.492 0.154z" fill="rgb(241, 125, 3)"></path><path d="M706.335 606.372c-15.145 6.395-33 11.864-51.505 15.525l-1.794 0.296c-41.751 8.978-89.95 14.432-139.313 15.058l-0.484 0.005c-7.486 0.259-16.283 0.407-25.116 0.407-50.104 0-99.098-4.754-146.555-13.836l4.851 0.773c-20.688-3.57-39.194-9.534-56.446-17.712l1.314 0.56c-4.246-1.963-7.878-4.51-10.979-7.59l0.002 0.002c-2.208-1.742-3.612-4.418-3.612-7.422 0-2.831 1.247-5.371 3.222-7.099l0.011-0.009c4.214-4.543 9.419-8.105 15.276-10.351l0.278-0.094c19.458-7.955 42.095-14.009 65.662-17.113l1.41-0.152c14.838-2.365 29.809-3.881 44.728-5.724 2.755-0.338 5.704-1.024 8.018 2.335-12.36 2.693-24.494 5.253-36.588 7.997-11.965 2.579-22.423 5.996-32.381 10.346l1.088-0.423c-3.26 1.429-6.052 3.007-8.662 4.828l0.163-0.107c-7.055 4.956-6.861 9.636 0.727 13.711 10.85 5.29 23.451 9.075 36.725 10.676l0.569 0.056c36.798 6.348 79.178 9.976 122.405 9.976 19.58 0 38.986-0.744 58.192-2.207l-2.554 0.156c44.547-2.491 86.222-8.672 126.561-18.298l-4.828 0.972c0.693-0.264 1.494-0.416 2.33-0.416 1.091 0 2.122 0.26 3.033 0.721l-0.038-0.018c7.69 4.536 15.37 8.991 24.289 14.172z" fill="rgb(8, 102, 128)"></path><path d="M668.539 699.167c-10.565 5.446-22.833 9.952-35.698 12.892l-1.064 0.205c-40.192 9.812-86.335 15.439-133.793 15.439-7.394 0-14.756-0.137-22.084-0.407l1.058 0.031c-39.917-0.622-78.368-5.51-115.341-14.229l3.633 0.722c-14.421-2.982-27.217-7.751-38.992-14.16l0.736 0.366c-6.144-3.543-12.964-7.25-12.718-15.688s7.475-11.602 13.844-14.592c14.645-6.496 31.638-11.312 49.419-13.613l0.931-0.098c0.338 3.133-2.12 3.133-3.4 4.096-8.622 6.441-8.192 13.824 1.311 18.934 9.77 4.906 21.117 8.501 33.079 10.174l0.58 0.066c26.427 4.388 56.88 6.896 87.917 6.896 19.326 0 38.425-0.972 57.251-2.87l-2.371 0.194c29.348-2.262 56.4-6.82 82.571-13.567l-3.273 0.716c0.648-0.28 1.402-0.442 2.194-0.442 0.897 0 1.745 0.209 2.499 0.58l-0.033-0.015c10.291 5.99 20.603 11.93 31.744 18.371z" fill="rgb(5, 102, 127)"></path><path d="M629.658 796.764c-9.681 5.544-20.88 10.188-32.684 13.351l-0.995 0.227c-29.071 7.898-62.45 12.436-96.888 12.436-6.718 0-13.396-0.173-20.029-0.514l0.929 0.038c-34.777-0.298-68.109-6.046-99.326-16.427l2.281 0.657c-8.846-2.73-16.523-6.874-23.184-12.229l0.134 0.104c-3.966-2.433-6.571-6.745-6.571-11.665 0-5.075 2.771-9.502 6.883-11.851l0.067-0.035c11.625-7.597 25.421-12.921 40.259-14.993l0.527-0.060c1.597-0.358 3.226 0 1.966 2.662-3.482 7.434-2.816 9.277 4.639 13.128 10.273 4.934 22.232 8.229 34.844 9.195l0.341 0.021c16.023 2.12 34.55 3.329 53.359 3.329 31.766 0 62.726-3.451 92.526-9.998l-2.843 0.524c0.797-0.294 1.717-0.464 2.677-0.464 1.346 0 2.614 0.335 3.725 0.926l-0.043-0.021c12.052 7.035 24.177 13.998 37.407 21.658z" fill="rgb(3, 102, 127)"></path><path d="M303.923 924.355c1.513-1.939 3.85-3.174 6.475-3.174 0.842 0 1.655 0.127 2.42 0.363l-0.058-0.015c47.548 7.914 102.335 12.437 158.179 12.437 11.497 0 22.95-0.192 34.354-0.572l-1.66 0.044c74.715-0.34 146.909-10.513 215.549-29.29l-5.813 1.355c25.628-7.091 48.003-16.616 68.744-28.646l-1.386 0.742c8.7-4.981 16.21-10.662 22.914-17.169l-0.028 0.027c0.932-0.932 1.7-2.765 3.348-2.048 2.048 0.85 1.137 2.775 0.86 4.301-2.423 10.282-8.328 18.908-16.375 24.768l-0.121 0.084c-18.604 14.375-40.545 25.498-64.382 32.040l-1.318 0.308c-42.132 13.121-91.111 22.327-141.676 25.748l-1.991 0.108c-27.177 2.222-54.405 3.389-81.644 3.072-1.633 0.013-3.564 0.020-5.497 0.020-65.58 0-129.223-8.291-189.938-23.882l5.279 1.15c-1.966-0.471-3.881-1.096-6.236-1.772z" fill="rgb(15, 103, 129)"></path><path d="M692.859 713.718c18.879-10.526 34.942-21.088 50.186-32.671l-1.034 0.753c17.645-12.74 31.616-29.519 40.719-49.026l0.323-0.772c3.968-8.372 6.285-18.19 6.285-28.55 0-2.518-0.137-5.003-0.403-7.45l0.027 0.303c-3.453-24.944-24.635-43.944-50.255-43.944-2.468 0-4.895 0.176-7.268 0.517l0.272-0.032-4.209 0.471c0-2.796 0.84-4.7 3.41-5.366 8.069-2.732 17.364-4.308 27.026-4.308 16.291 0 31.536 4.482 44.568 12.279l-0.396-0.22c29.317 18.432 36.434 53.996 17.347 84.992-11.402 17.061-26.118 31.011-43.322 41.205l-0.618 0.339c-21.372 13.577-46.028 24.885-72.205 32.657l-2.086 0.531c-3.871 1.147-3.891 1.085-8.366-1.71z" fill="rgb(6, 102, 127)"></path></svg>